<svg width="25" height="12" viewBox="0 0 25 12" fill="none" xmlns="http://www.w3.org/2000/svg">
<path d="M7.325 5.585C8.015 5.735 8.545 6.035 8.915 6.485C9.295 6.925 9.485 7.495 9.485 8.195C9.485 9.095 9.15 9.79 8.48 10.28C7.82 10.76 6.84 11 5.54 11H0.71V0.499999H5.24C6.41 0.499999 7.315 0.734999 7.955 1.205C8.605 1.675 8.93 2.34 8.93 3.2C8.93 3.78 8.785 4.275 8.495 4.685C8.215 5.085 7.825 5.385 7.325 5.585ZM1.82 1.415V5.225H5.165C6.015 5.225 6.67 5.065 7.13 4.745C7.59 4.415 7.82 3.94 7.82 3.32C7.82 2.7 7.59 2.23 7.13 1.91C6.67 1.58 6.015 1.415 5.165 1.415H1.82ZM5.525 10.085C6.465 10.085 7.175 9.925 7.655 9.605C8.135 9.285 8.375 8.785 8.375 8.105C8.375 6.795 7.425 6.14 5.525 6.14H1.82V10.085H5.525ZM15.8886 4.655C16.1386 4.125 16.5086 3.725 16.9986 3.455C17.4986 3.185 18.1136 3.05 18.8436 3.05V4.085L18.5886 4.07C17.7586 4.07 17.1086 4.325 16.6386 4.835C16.1686 5.345 15.9336 6.06 15.9336 6.98V11H14.8686V3.11H15.8886V4.655ZM23.9226 11.075C23.7026 11.075 23.5126 10.995 23.3526 10.835C23.2026 10.675 23.1276 10.48 23.1276 10.25C23.1276 10.02 23.2026 9.83 23.3526 9.68C23.5126 9.52 23.7026 9.44 23.9226 9.44C24.1426 9.44 24.3326 9.52 24.4926 9.68C24.6526 9.83 24.7326 10.02 24.7326 10.25C24.7326 10.48 24.6526 10.675 24.4926 10.835C24.3326 10.995 24.1426 11.075 23.9226 11.075Z" fill="white"/>
</svg>
