<svg width="32" height="20" viewBox="0 0 32 20" fill="none" xmlns="http://www.w3.org/2000/svg">
<path d="M30.9336 1.66406C31.1094 0.960938 30.9336 0.375 29.8789 0.375H26.4219C25.543 0.375 25.1328 0.84375 24.8984 1.37109C24.8984 1.37109 23.1406 5.64844 20.6797 8.46094C19.8594 9.22266 19.5078 9.51562 19.0391 9.51562C18.8633 9.51562 18.5117 9.22266 18.5117 8.51953V1.66406C18.5117 0.785156 18.2773 0.375 17.5156 0.375H12.125C11.5391 0.375 11.2461 0.785156 11.2461 1.19531C11.2461 2.01562 12.4766 2.19141 12.5938 4.53516V9.63281C12.5938 10.7461 12.418 10.9805 11.9492 10.9805C10.7773 10.9805 7.96484 6.64453 6.26562 1.72266C5.91406 0.785156 5.5625 0.375 4.68359 0.375H1.22656C0.289062 0.375 0.0546875 0.84375 0.0546875 1.37109C0.0546875 2.30859 1.22656 6.82031 5.50391 12.8555C8.375 16.957 12.418 19.125 16.0508 19.125C18.2188 19.125 18.5117 18.6562 18.5117 17.8359C18.5117 13.9102 18.3359 13.5 19.3906 13.5C19.918 13.5 20.7969 13.793 22.8477 15.7852C25.1914 18.1289 25.6016 19.125 26.8906 19.125H30.3477C31.3438 19.125 31.8125 18.6562 31.5195 17.6602C30.875 15.668 26.4805 11.4492 26.2461 11.1562C25.7188 10.5117 25.8945 10.2188 26.2461 9.63281C26.2461 9.63281 30.4648 3.65625 30.9336 1.66406Z" fill="#6262D9"/>
</svg>
