<svg width="33" height="23" viewBox="0 0 33 23" fill="none" xmlns="http://www.w3.org/2000/svg">
<path d="M32.168 4.07422C31.8164 2.66797 30.7031 1.55469 29.3555 1.20312C26.8359 0.5 16.875 0.5 16.875 0.5C16.875 0.5 6.85547 0.5 4.33594 1.20312C2.98828 1.55469 1.875 2.66797 1.52344 4.07422C0.820312 6.53516 0.820312 11.8086 0.820312 11.8086C0.820312 11.8086 0.820312 17.0234 1.52344 19.543C1.875 20.9492 2.98828 22.0039 4.33594 22.3555C6.85547 23 16.875 23 16.875 23C16.875 23 26.8359 23 29.3555 22.3555C30.7031 22.0039 31.8164 20.9492 32.168 19.543C32.8711 17.0234 32.8711 11.8086 32.8711 11.8086C32.8711 11.8086 32.8711 6.53516 32.168 4.07422ZM13.5938 16.5547V7.0625L21.9141 11.8086L13.5938 16.5547Z" fill="#6262D9"/>
</svg>
